<svg width="600" height="1000" viewBox="0 0 600 1000" fill="none" xmlns="http://www.w3.org/2000/svg">
  <rect width="600" height="1000" fill="#DBF3EE"/>
  <path d="M45 105C92 80 146 58 196 48C274 32 356 44 416 83C458 109 497 142 554 150V308C499 296 464 284 426 298C384 314 350 357 293 353C244 349 209 308 171 289C134 271 89 265 45 280V105Z" fill="#C7E8E0"/>
  <path d="M0 540C84 521 136 470 198 470C287 470 332 567 428 579C500 588 547 540 600 512V735C528 779 447 820 346 809C246 797 191 733 112 736C71 738 34 756 0 777V540Z" fill="#C2E5F0"/>
  <path d="M531 30L389 172" stroke="#F9FAFB" stroke-width="28" stroke-linecap="round"/>
  <path d="M433 160L277 306" stroke="#F9FAFB" stroke-width="28" stroke-linecap="round"/>
  <path d="M301 258L121 423" stroke="#F9FAFB" stroke-width="28" stroke-linecap="round"/>
  <path d="M453 312L253 506" stroke="#F9FAFB" stroke-width="28" stroke-linecap="round"/>
  <path d="M550 444L356 628" stroke="#F9FAFB" stroke-width="28" stroke-linecap="round"/>
  <path d="M377 615L201 783" stroke="#F9FAFB" stroke-width="28" stroke-linecap="round"/>
  <path d="M276 769L134 903" stroke="#F9FAFB" stroke-width="28" stroke-linecap="round"/>
  <path d="M86 176H468" stroke="#F7FAFC" stroke-width="18" stroke-linecap="round"/>
  <path d="M42 338H519" stroke="#F7FAFC" stroke-width="18" stroke-linecap="round"/>
  <path d="M89 522H574" stroke="#F7FAFC" stroke-width="18" stroke-linecap="round"/>
  <path d="M40 690H472" stroke="#F7FAFC" stroke-width="18" stroke-linecap="round"/>
  <path d="M106 860H506" stroke="#F7FAFC" stroke-width="18" stroke-linecap="round"/>
  <path d="M190 0V180" stroke="#F7FAFC" stroke-width="18" stroke-linecap="round"/>
  <path d="M330 92V420" stroke="#F7FAFC" stroke-width="18" stroke-linecap="round"/>
  <path d="M480 236V622" stroke="#F7FAFC" stroke-width="18" stroke-linecap="round"/>
  <path d="M126 389V872" stroke="#F7FAFC" stroke-width="18" stroke-linecap="round"/>
  <path d="M283 515V1000" stroke="#F7FAFC" stroke-width="18" stroke-linecap="round"/>
  <path d="M430 615V964" stroke="#F7FAFC" stroke-width="18" stroke-linecap="round"/>
  <path d="M40 92C108 116 182 136 254 125C351 110 433 40 531 58" stroke="#7DD3FC" stroke-width="10" stroke-linecap="round"/>
  <path d="M469 771C430 744 370 734 319 752C264 771 212 817 154 829C112 839 73 834 41 820" stroke="#7DD3FC" stroke-width="10" stroke-linecap="round"/>
  <circle cx="132" cy="254" r="19" fill="#A7F3D0"/>
  <circle cx="448" cy="380" r="24" fill="#A7F3D0"/>
  <circle cx="211" cy="649" r="18" fill="#BFDBFE"/>
  <circle cx="503" cy="701" r="18" fill="#BFDBFE"/>
</svg>

